<?xml version="1.0" encoding="UTF-8" standalone="no"?>
<!-- Created with Inkscape (http://www.inkscape.org/) -->

<svg
   width="230mm"
   height="133.09332mm"
   viewBox="0 0 230 133.09332"
   version="1.1"
   id="svg1"
   inkscape:export-filename="LogoAeroCLub.png"
   inkscape:export-xdpi="96"
   inkscape:export-ydpi="96"
   inkscape:version="1.3 (0e150ed6c4, 2023-07-21)"
   sodipodi:docname="LogoAeroCLub.svg"
   xmlns:inkscape="http://www.inkscape.org/namespaces/inkscape"
   xmlns:sodipodi="http://sodipodi.sourceforge.net/DTD/sodipodi-0.dtd"
   xmlns="http://www.w3.org/2000/svg"
   xmlns:svg="http://www.w3.org/2000/svg">
  <sodipodi:namedview
     id="namedview1"
     pagecolor="#ffffff"
     bordercolor="#000000"
     borderopacity="0.25"
     inkscape:showpageshadow="2"
     inkscape:pageopacity="0.0"
     inkscape:pagecheckerboard="0"
     inkscape:deskcolor="#d1d1d1"
     inkscape:document-units="mm"
     inkscape:zoom="0.22672208"
     inkscape:cx="1510.6601"
     inkscape:cy="734.37928"
     inkscape:window-width="1366"
     inkscape:window-height="705"
     inkscape:window-x="-8"
     inkscape:window-y="-8"
     inkscape:window-maximized="1"
     inkscape:current-layer="layer1" />
  <defs
     id="defs1" />
  <g
     inkscape:label="Capa 1"
     inkscape:groupmode="layer"
     id="layer1"
     transform="translate(-48.574696,-24.918083)">
    <rect
       style="fill:#9e0000;fill-opacity:1;stroke-width:0.139056"
       id="rect1"
       width="230"
       height="133.09332"
       x="48.574696"
       y="24.918083" />
    <a
       id="a223771"
       style="display:inline;fill:none;stroke:#ffffff;stroke-opacity:1"
       transform="matrix(5.395579,0,0,5.395579,-141.60608,65.424248)">
      <g
         id="g82747-5-6-3"
         transform="matrix(1.618999,0,0,1.618999,-212.06027,-230.90776)"
         style="display:inline;fill:none;stroke:#ffffff;stroke-width:0.105999;stroke-miterlimit:4;stroke-dasharray:none;stroke-opacity:1"
         inkscape:transform-center-x="0.93334548"
         inkscape:transform-center-y="0.016780332">
        <g
           id="g85400-2-9-4"
           transform="translate(-10.535319,0.18930747)"
           style="fill:#ffffff;fill-opacity:1;stroke:#ffffff;stroke-width:0.105999;stroke-miterlimit:4;stroke-dasharray:none;stroke-opacity:1">
          <g
             id="g73577-9-3-8-1"
             transform="matrix(0.05579662,0,0,0.05579662,150.36751,138.45411)"
             style="display:inline;fill:#ffffff;fill-opacity:1;stroke:#ffffff;stroke-width:1.89975;stroke-miterlimit:4;stroke-dasharray:none;stroke-opacity:1">
            <path
               d="m 429.523,215.117 v -44.64 h 5.688 v -3.391 h -14.828 v 3.391 h 5.687 v 44.64 z"
               style="fill:#ffffff;fill-opacity:1;stroke:#ffffff;stroke-width:1.89975;stroke-linecap:butt;stroke-linejoin:miter;stroke-miterlimit:4;stroke-dasharray:none;stroke-opacity:1"
               id="path73579-0-42-5-4" />
          </g>
          <g
             id="g73585-9-9-5-4"
             transform="matrix(0.05579662,0,0,0.05579662,150.36751,138.45411)"
             style="display:inline;fill:#ffffff;fill-opacity:1;stroke:#ffffff;stroke-width:1.89975;stroke-miterlimit:4;stroke-dasharray:none;stroke-opacity:1">
            <path
               d="m 462.023,215.117 -12.89,-10.656 c 3.609,-1.297 5.187,-2.234 7.422,-4.391 3.812,-3.75 5.984,-8.718 5.984,-13.89 0,-10.657 -8.578,-19.094 -19.453,-19.094 h -2.594 v 48.031 h 3.531 v -10.375 l 12.391,10.375 z m -18,-13.172 v -31.468 c 4.11,0.359 6.344,1.218 8.86,3.234 3.812,2.953 6.187,7.859 6.187,12.672 0,4.765 -2.234,9.219 -6.047,12.25 -2.656,2.078 -4.812,2.875 -9,3.312 z"
               style="fill:#ffffff;fill-opacity:1;stroke:#ffffff;stroke-width:1.89975;stroke-linecap:butt;stroke-linejoin:miter;stroke-miterlimit:4;stroke-dasharray:none;stroke-opacity:1"
               id="path73587-06-51-6-2" />
          </g>
          <g
             id="g73593-9-7-6-7"
             transform="matrix(0.05579662,0,0,0.05579662,150.36751,138.45411)"
             style="display:inline;fill:#ffffff;fill-opacity:1;stroke:#ffffff;stroke-width:1.89975;stroke-miterlimit:4;stroke-dasharray:none;stroke-opacity:1">
            <path
               d="m 469.18,167.086 h 3.531 v 48.031 h -3.531 z"
               style="fill:#ffffff;fill-opacity:1;stroke:#ffffff;stroke-width:1.89975;stroke-linecap:butt;stroke-linejoin:miter;stroke-miterlimit:4;stroke-dasharray:none;stroke-opacity:1"
               id="path73595-2-6-3-7" />
          </g>
          <g
             id="g73601-1-7-0-4"
             transform="matrix(0.05579662,0,0,0.05579662,150.36751,138.45411)"
             style="display:inline;fill:#ffffff;fill-opacity:1;stroke:#ffffff;stroke-width:1.89975;stroke-miterlimit:4;stroke-dasharray:none;stroke-opacity:1">
            <path
               d="m 498.492,215.117 v -48.031 h -3.39 v 7.422 l -13.688,-8.203 v 48.812 h 3.609 v -42.703 l 10.079,6.125 v 36.578 z"
               style="fill:#ffffff;fill-opacity:1;stroke:#ffffff;stroke-width:1.89975;stroke-linecap:butt;stroke-linejoin:miter;stroke-miterlimit:4;stroke-dasharray:none;stroke-opacity:1"
               id="path73603-7-8-3-9" />
          </g>
          <g
             id="g73609-7-8-6-1"
             transform="matrix(0.05579662,0,0,0.05579662,150.36751,138.45411)"
             style="display:inline;fill:#ffffff;fill-opacity:1;stroke:#ffffff;stroke-width:1.89975;stroke-miterlimit:4;stroke-dasharray:none;stroke-opacity:1">
            <path
               d="m 507.148,167.086 h 3.531 v 48.031 h -3.531 z"
               style="fill:#ffffff;fill-opacity:1;stroke:#ffffff;stroke-width:1.89975;stroke-linecap:butt;stroke-linejoin:miter;stroke-miterlimit:4;stroke-dasharray:none;stroke-opacity:1"
               id="path73611-8-9-8-4" />
          </g>
          <g
             id="g73617-8-2-7-3"
             transform="matrix(0.05579662,0,0,0.05579662,150.36751,138.45411)"
             style="display:inline;fill:#ffffff;fill-opacity:1;stroke:#ffffff;stroke-width:1.89975;stroke-miterlimit:4;stroke-dasharray:none;stroke-opacity:1">
            <path
               d="m 519.383,215.117 h 2.953 c 13.547,0 24.422,-10.797 24.422,-24.265 0,-8.782 -4.547,-16.485 -12.391,-20.954 -3.672,-2.078 -6.703,-2.812 -11.734,-2.812 h -3.25 z m 3.609,-3.594 v -41.125 c 5.11,0.079 7.985,1.016 12.094,4.11 5.25,3.969 8.141,9.859 8.141,16.344 0,6.546 -2.954,12.531 -8.282,16.562 -3.75,2.875 -6.843,3.953 -11.953,4.109 z"
               style="fill:#ffffff;fill-opacity:1;stroke:#ffffff;stroke-width:1.89975;stroke-linecap:butt;stroke-linejoin:miter;stroke-miterlimit:4;stroke-dasharray:none;stroke-opacity:1"
               id="path73619-0-57-1-3" />
          </g>
          <g
             id="g73625-0-0-0-9"
             transform="matrix(0.05579662,0,0,0.05579662,150.36751,138.45411)"
             style="display:inline;fill:#ffffff;fill-opacity:1;stroke:#ffffff;stroke-width:1.89975;stroke-miterlimit:4;stroke-dasharray:none;stroke-opacity:1">
            <path
               d="m 568.258,215.117 v -39.312 c 0,-3.391 -0.281,-4.75 -1.438,-6.328 -1.359,-1.954 -3.531,-2.954 -6.109,-2.954 -2.953,0 -5.484,1.438 -6.703,3.875 -0.641,1.297 -0.86,2.594 -0.86,5.625 v 2.875 h -3.031 l 1.156,3.454 h 1.875 v 32.765 h 3.454 v -32.765 h 8.14 v 32.765 z m -3.516,-36.219 h -8.14 v -4.312 c 0,-2.734 1.718,-4.547 4.25,-4.547 2.375,0 3.89,1.734 3.89,4.469 z"
               style="fill:#ffffff;fill-opacity:1;stroke:#ffffff;stroke-width:1.89975;stroke-linecap:butt;stroke-linejoin:miter;stroke-miterlimit:4;stroke-dasharray:none;stroke-opacity:1"
               id="path73627-2-98-9-1" />
          </g>
          <g
             id="g73633-3-4-7-3"
             transform="matrix(0.05579662,0,0,0.05579662,150.36751,138.45411)"
             style="display:inline;fill:#ffffff;fill-opacity:1;stroke:#ffffff;stroke-width:1.89975;stroke-miterlimit:4;stroke-dasharray:none;stroke-opacity:1">
            <path
               d="m 576.898,215.117 h 2.954 c 13.546,0 24.421,-10.797 24.421,-24.265 0,-8.782 -4.546,-16.485 -12.39,-20.954 -3.672,-2.078 -6.703,-2.812 -11.735,-2.812 h -3.25 z m 3.61,-3.594 v -41.125 c 5.109,0.079 7.984,1.016 12.094,4.11 5.25,3.969 8.14,9.859 8.14,16.344 0,6.546 -2.953,12.531 -8.281,16.562 -3.75,2.875 -6.844,3.953 -11.953,4.109 z"
               style="fill:#ffffff;fill-opacity:1;stroke:#ffffff;stroke-width:1.89975;stroke-linecap:butt;stroke-linejoin:miter;stroke-miterlimit:4;stroke-dasharray:none;stroke-opacity:1"
               id="path73635-7-8-9-1" />
          </g>
        </g>
        <g
           id="g73637-2-3-8-2"
           style="display:inline;fill:none;fill-opacity:1;stroke:#ffffff;stroke-width:1.89975;stroke-miterlimit:4;stroke-dasharray:none;stroke-opacity:1"
           transform="matrix(0.05579662,0,0,0.05579662,150.36751,138.45411)">
          <path
             d="m 230.074,34.715 c -3.92475,-3.8925 -8.21862,-7.41325 -12.82458,-10.504844 m 0,0 c -2.30297,-1.545797 -3.42059,-2.255429 -5.87247,-3.579472 m -11.78924,-5.680603 c -1.32425,-0.482251 -3.62561,-1.142806 -4.97907,-1.561546 -1.35346,-0.41874 -2.72107,-0.805276 -4.10195,-1.158711 -1.38088,-0.353435 -2.77503,-0.673769 -4.18155,-0.960105 C 180.69906,10.124375 174.875,9.523 168.91,9.523 c -47.976,0 -87.293,38.133 -87.293,86.11 0.051,20.605 7.422,40.523 20.801,56.195 m 6.809,7.563 c 16.347,16.879 36.976,24.558 60.472,24.578 2.99856,0 5.96296,-0.15027 8.88574,-0.44374 2.92279,-0.29347 5.80396,-0.73013 8.63608,-1.30293 2.83212,-0.5728 5.61519,-1.28172 8.34177,-2.1197 2.72658,-0.83798 5.39666,-1.80502 8.0028,-2.89405 2.60615,-1.08903 5.14835,-2.30004 7.61918,-3.62598 2.47083,-1.32593 4.87028,-2.76677 7.19091,-4.31547 2.32063,-1.54869 4.56244,-3.20523 6.71799,-4.96255 2.15554,-1.75732 2.85806,-2.24864 4.83364,-4.20043 m 7.39545,-8.16007 c 1.78073,-2.13214 5.6102,-7.66332 7.18119,-9.96165 m 3.05432,-5.63553 c 1.34637,-2.45039 1.36174,-2.48811 2.4686,-5.07642 1.10687,-2.5883 2.09025,-5.24204 2.94273,-7.95412 0.85247,-2.71208 1.57403,-5.48252 2.15723,-8.30424 0.5832,-2.82171 1.02804,-5.69471 1.32709,-8.61192 0.29904,-2.91722 0.45228,-5.87864 0.45228,-8.8772 0,-21.316 -7.695,-40.824 -20.437,-55.937"
             style="fill:none;fill-opacity:1;fill-rule:nonzero;stroke:#ffffff;stroke-width:1.89975;stroke-linecap:butt;stroke-linejoin:miter;stroke-miterlimit:4;stroke-dasharray:none;stroke-opacity:1"
             id="path73639-5-0-0-4"
             sodipodi:nodetypes="cccccssssccccsssssssccccsssssc" />
        </g>
        <path
           d="m 154.5893,148.562 0.59876,-0.19964 c 0,0 1.75062,-1.43241 2.71483,-2.01609 1.47052,-0.88991 2.51521,-1.1377 2.51521,-1.1377 l -1.65688,2.97419 0.93827,-0.33936 1.45702,-2.67472 0.53899,-0.0201 0.90586,-0.87835 c 0,0 -0.18747,-0.0556 -0.42176,-0.0772 -0.23429,-0.0218 -0.4841,-0.003 -0.4841,-0.003 l 2.27572,-4.13202 -0.6787,0.23954 c 0,0 -3.10609,2.68063 -4.60607,4.07337 -1.36551,1.26781 -3.95241,3.90247 -3.95241,3.90247 z"
           style="display:inline;fill:none;fill-opacity:1;fill-rule:nonzero;stroke:#ffffff;stroke-width:0.105999;stroke-miterlimit:4;stroke-dasharray:none;stroke-opacity:1"
           id="path73641-2-3-6-2" />
        <g
           id="g73643-5-6-5-3"
           style="display:inline;fill:none;stroke:#ffffff;stroke-width:1.89975;stroke-miterlimit:4;stroke-dasharray:none;stroke-opacity:1"
           transform="matrix(0.05579662,0,0,0.05579662,150.36751,138.45411)">
          <path
             d="m 75.664,181.156 10.731,-3.578 c 0,0 31.375,-25.672 48.656,-36.133 26.355,-15.949 45.078,-20.39 45.078,-20.39 l -29.695,53.304 16.816,-6.082 26.113,-47.937 9.66,-0.36 16.235,-15.742 c 0,0 -3.36,-0.996 -7.559,-1.383 -4.199,-0.39 -8.676,-0.046 -8.676,-0.046 l 40.786,-74.055 -12.164,4.293 c 0,0 -55.668,48.043 -82.551,73.004 -24.473,22.722 -70.836,69.941 -70.836,69.941 z"
             style="fill:none;stroke:#ffffff;stroke-width:1.89975;stroke-linecap:butt;stroke-linejoin:miter;stroke-miterlimit:4;stroke-dasharray:none;stroke-opacity:1"
             id="path73645-2-7-4-9" />
        </g>
        <path
           d="m 162.35809,141.71102 -1.42561,2.62551 c 0,0 -0.94441,0.31408 -1.39753,0.5222 -0.56299,0.25873 -1.62313,0.90346 -1.62313,0.90346 0,0 1.55773,-1.44463 2.34301,-2.15972 0.69724,-0.63469 2.10326,-1.89145 2.10326,-1.89145 z"
           style="display:inline;fill:none;fill-opacity:1;fill-rule:nonzero;stroke:#ffffff;stroke-width:0.105999;stroke-miterlimit:4;stroke-dasharray:none;stroke-opacity:1"
           id="path73647-6-8-0-4" />
        <g
           id="g73649-6-3-2-8"
           transform="matrix(0.05579662,0,0,0.05579662,150.36751,138.45411)"
           style="display:inline;fill:none;stroke:#ffffff;stroke-width:1.89975;stroke-miterlimit:4;stroke-dasharray:none;stroke-opacity:1">
          <path
             d="m 214.898,58.371 -25.55,47.055 c 0,0 -16.926,5.629 -25.047,9.359 -10.09,4.637 -29.09,16.192 -29.09,16.192 0,0 27.918,-25.891 41.992,-38.707 12.496,-11.375 37.695,-33.899 37.695,-33.899 z"
             style="fill:none;stroke:#ffffff;stroke-width:1.89975;stroke-linecap:butt;stroke-linejoin:miter;stroke-miterlimit:4;stroke-dasharray:none;stroke-opacity:1"
             id="path73651-1-8-4-9" />
        </g>
        <g
           id="g73657-7-4-7-5"
           transform="matrix(0.05579662,0,0,0.05579662,150.36751,138.45411)"
           style="display:inline;fill:none;stroke:#ffffff;stroke-width:1.89975;stroke-miterlimit:4;stroke-dasharray:none;stroke-opacity:1">
          <path
             d="m 139.348,88.785 c -23.395,23.051 -87.352,81.516 -87.352,81.516 0,0 49.16,-53.043 81.844,-86.625 2.808,-1.93 4.578,-0.442 5.39,0.32 0.813,0.766 1.149,3.692 0.118,4.789 z"
             style="fill:none;fill-opacity:1;fill-rule:nonzero;stroke:#ffffff;stroke-width:1.89975;stroke-linecap:butt;stroke-linejoin:miter;stroke-miterlimit:4;stroke-dasharray:none;stroke-opacity:1"
             id="path73659-5-36-0-8" />
        </g>
        <g
           id="g73661-2-4-2-0"
           transform="matrix(0.05579662,0,0,0.05579662,150.36751,138.45411)"
           style="display:inline;fill:none;stroke:#ffffff;stroke-width:1.89975;stroke-miterlimit:4;stroke-dasharray:none;stroke-opacity:1">
          <path
             d="m 122.633,63.453 15.379,6.363 v 2.254 l 2.519,-0.925 1.989,1.457 6.363,-6.364 h 0.797 l 0.398,1.059 -7.426,8.09 -1.988,3.445 2.387,2.852 0.199,2.453 2.32,2.121 2.52,-5.106 0.926,-1.191 c 0,0 2.851,-0.996 3.117,-1.129 0.265,-0.133 11.93,-8.418 11.93,-8.418 l 1.992,2.652 7.82,-5.039 0.996,-1.988 2.188,-0.93 -0.332,-1.39 -0.664,0.398 0.066,-4.84 28.773,-25.101 0.844,0.187 c 0,0 1.031,-0.562 1.031,-1.031 0,-0.469 -0.054,-1.137 -0.054,-1.137 l 1.324,-0.961 0.898,-0.859 0.196,-2.187 v -1.395 l -1.457,-1.789 0.746,-2 c 0,0 8.449,-7.027 12.726,-11.313 2.711,-2.711 7.61,-8.628 7.61,-8.628 l 2.32,-2.254 -0.465,-0.332 -2.387,2.054 c 0,0 -6.468,2.645 -9.605,4.172 -3.211,1.563 -9.422,5.11 -9.422,5.11 l -1.059,2.121 -5.171,4.043 -1.789,-0.86 -5.438,6.363 -6.629,7.094 -1.523,-0.199 -1.457,2.055 -7.957,7.289 -1.391,-0.992 -0.664,-0.133 -3.117,2.054 -0.196,4.309 -7.625,5.57 -4.441,1.524 -7.824,3.91 -25.059,-0.594 c 0,0 0.399,-0.605 0.199,-0.797 -0.281,-0.273 -1.132,0.325 -1.132,0.325 l -6.887,7.562 -0.133,0.93 0.797,0.597 1.523,0.133 z"
             style="fill:none;fill-opacity:1;fill-rule:nonzero;stroke:#ffffff;stroke-width:1.89975;stroke-linecap:butt;stroke-linejoin:miter;stroke-miterlimit:4;stroke-dasharray:none;stroke-opacity:1"
             id="path73663-8-9-5-9" />
        </g>
        <g
           id="g73665-7-9-8-5"
           transform="matrix(0.05579662,0,0,0.05579662,150.36751,138.45411)"
           style="display:inline;fill:none;stroke:#ffffff;stroke-width:1.89975;stroke-miterlimit:4;stroke-dasharray:none;stroke-opacity:1">
          <path
             d="m 187.598,30.375 c 0,0 4.035,-8.016 12.859,-16.109 1.848,-1.692 8.75,-2.453 8.75,-2.453"
             style="fill:none;fill-opacity:1;fill-rule:nonzero;stroke:#ffffff;stroke-width:1.89975;stroke-linecap:butt;stroke-linejoin:miter;stroke-miterlimit:4;stroke-dasharray:none;stroke-opacity:1"
             id="path73667-6-2-2-6" />
        </g>
        <g
           id="g73669-3-5-3-7"
           transform="matrix(0.05579662,0,0,0.05579662,150.36751,138.45411)"
           style="display:inline;fill:none;stroke:#ffffff;stroke-width:1.89975;stroke-miterlimit:4;stroke-dasharray:none;stroke-opacity:1">
          <path
             d="m 193.332,25.898 c 0,0 -1.074,-2.668 -0.164,-3.281 0.785,-0.531 2.586,1.196 2.586,1.196"
             style="fill:none;fill-opacity:1;fill-rule:nonzero;stroke:#ffffff;stroke-width:1.89975;stroke-linecap:butt;stroke-linejoin:miter;stroke-miterlimit:4;stroke-dasharray:none;stroke-opacity:1"
             id="path73671-3-2-9-0" />
        </g>
        <g
           id="g73673-4-7-0-5"
           transform="matrix(0.05579662,0,0,0.05579662,150.36751,138.45411)"
           style="display:inline;fill:none;stroke:#ffffff;stroke-width:1.89975;stroke-miterlimit:4;stroke-dasharray:none;stroke-opacity:1">
          <path
             d="m 205.23,16.055 c -0.199,-0.399 -0.761,-1.321 -0.859,-2.055 -0.07,-0.508 0.195,-1.523 0.195,-1.523"
             style="fill:none;fill-opacity:1;fill-rule:nonzero;stroke:#ffffff;stroke-width:1.89975;stroke-linecap:butt;stroke-linejoin:miter;stroke-miterlimit:4;stroke-dasharray:none;stroke-opacity:1"
             id="path73675-1-8-9-3" />
        </g>
        <g
           id="g73697-4-19-6-2"
           transform="matrix(0.05579662,0,0,0.04572823,150.36751,138.45411)"
           style="display:inline;fill:none;fill-opacity:1;stroke:#ffffff;stroke-width:2.09849;stroke-miterlimit:4;stroke-dasharray:none;stroke-opacity:1" />
        <g
           id="g83113-9-3-1"
           transform="matrix(0.58563675,0,0,0.58563675,67.26818,61.079399)"
           style="display:inline;fill:none;stroke:#ffffff;stroke-width:0.180999;stroke-miterlimit:4;stroke-dasharray:none;stroke-opacity:1"
           sodipodi:insensitive="true">
          <g
             id="g73681-8-2-1-0"
             transform="matrix(0.05579662,0,0,0.04572823,150.36751,138.45411)"
             style="display:inline;fill:none;fill-opacity:1;stroke:#ffffff;stroke-width:3.58327;stroke-miterlimit:4;stroke-dasharray:none;stroke-opacity:1">
            <path
               d="m 274.539,151.264 c -5.422,-10.848 -16.828,-17.845 -29.016,-17.845 -16.718,0 -30.484,14.451 -30.484,31.725 0,14.013 12.75,30.161 31.266,30.161 10.062,0 18.75,-3.737 26.437,-9.037 l -9.265,-13.555 c -4.75,3.851 -10.61,6.787 -16.829,6.787 -3.39,0 -7.453,-1.258 -9.484,-4.195 z m -42.562,13.556 v -2.04 c 0,-7.455 5.984,-14.681 13.656,-14.681 3.047,0 5.984,0.458 7.797,2.364 z"
               style="fill:none;fill-opacity:1;stroke:#ffffff;stroke-width:3.58327;stroke-linecap:butt;stroke-linejoin:miter;stroke-miterlimit:4;stroke-dasharray:none;stroke-opacity:1"
               id="path73683-4-85-5-3" />
          </g>
          <g
             id="g73689-6-3-5-0"
             transform="matrix(0.05579662,0,0,0.04572823,150.36751,138.45411)"
             style="display:inline;fill:none;fill-opacity:1;stroke:#ffffff;stroke-width:3.58327;stroke-miterlimit:4;stroke-dasharray:none;stroke-opacity:1">
            <path
               d="m 280.602,194.39 17.609,-1.792 v -29.475 c 0,-8.694 3.172,-12.202 11.969,-12.088 l 4.968,-17.616 c -9.593,0 -15.343,1.811 -18.734,11.973 h -0.234 v -11.077 l -15.578,1.811 z"
               style="fill:none;fill-opacity:1;stroke:#ffffff;stroke-width:3.58327;stroke-linecap:butt;stroke-linejoin:miter;stroke-miterlimit:4;stroke-dasharray:none;stroke-opacity:1"
               id="path73691-7-6-6-5" />
          </g>
          <path
             d="m 347.789,195.305 c 17.172,0 32.406,-12.984 32.406,-30.943 0,-17.96 -15.234,-30.943 -32.406,-30.943 -17.047,0 -32.297,12.983 -32.297,30.943 0,17.959 15.25,30.943 32.297,30.943 z m -14.672,-30.943 c 0,-8.141 6.891,-14.566 14.672,-14.566 7.906,0 14.797,6.425 14.797,14.566 0,8.122 -6.891,14.566 -14.797,14.566 -7.781,0 -14.672,-6.444 -14.672,-14.566 z"
             style="display:inline;fill:none;fill-opacity:1;stroke:#ffffff;stroke-width:3.58327;stroke-linecap:butt;stroke-linejoin:miter;stroke-miterlimit:4;stroke-dasharray:none;stroke-opacity:1"
             transform="matrix(0.05579662,0,0,0.04572823,150.36751,138.45411)"
             id="path73699-5-7-7-2" />
          <g
             id="g73705-1-5-1-0"
             transform="matrix(0.05579662,0,0,0.04572823,150.36751,138.45411)"
             style="display:inline;fill:none;fill-opacity:1;stroke:#ffffff;stroke-width:3.58327;stroke-miterlimit:4;stroke-dasharray:none;stroke-opacity:1">
            <path
               d="m 437.715,116.699 c -3.828,-1.792 -8.36,-2.479 -12.641,-2.479 -23.484,0 -40.094,17.617 -40.094,40.762 0,24.06 16.61,40.323 40.204,40.323 3.5,0 10.39,-1.125 13.546,-2.822 l 2.375,-20.552 c -4.062,2.936 -9.375,5.758 -14.562,5.758 -13.672,0 -22.359,-9.724 -22.359,-23.146 0,-13.326 9.25,-22.706 22.359,-22.706 5.187,0 9.937,2.592 14.109,5.529 z"
               style="fill:none;fill-opacity:1;stroke:#ffffff;stroke-width:3.58327;stroke-linecap:butt;stroke-linejoin:miter;stroke-miterlimit:4;stroke-dasharray:none;stroke-opacity:1"
               id="path73707-5-6-6-4" />
          </g>
          <g
             id="g73713-1-9-9-9"
             transform="matrix(0.05579662,0,0,0.04572823,150.36751,138.45411)"
             style="display:inline;fill:none;fill-opacity:1;stroke:#ffffff;stroke-width:3.58327;stroke-miterlimit:4;stroke-dasharray:none;stroke-opacity:1">
            <path
               d="m 452.137,114.792 v 79.598 l 17.609,-1.792 v -79.617 z"
               style="fill:none;fill-opacity:1;stroke:#ffffff;stroke-width:3.58327;stroke-linecap:butt;stroke-linejoin:miter;stroke-miterlimit:4;stroke-dasharray:none;stroke-opacity:1"
               id="path73715-5-2-3-3" />
          </g>
          <g
             id="g73721-1-4-4-1"
             transform="matrix(0.05579662,0,0,0.04572823,150.36751,138.45411)"
             style="display:inline;fill:none;fill-opacity:1;stroke:#ffffff;stroke-width:3.58327;stroke-miterlimit:4;stroke-dasharray:none;stroke-opacity:1">
            <path
               d="m 516.77,169.433 c 0,6.788 -3.5,10.067 -8.813,10.067 -5.312,0 -8.812,-3.279 -8.812,-10.067 v -35.118 l -17.61,1.811 v 34.566 c 0,14.451 5.313,24.613 21.235,24.613 4.843,0 11.734,-2.04 15.125,-9.723 h 0.234 v 8.808 l 16.25,-1.792 v -58.283 l -17.609,1.811 z"
               style="fill:none;fill-opacity:1;stroke:#ffffff;stroke-width:3.58327;stroke-linecap:butt;stroke-linejoin:miter;stroke-miterlimit:4;stroke-dasharray:none;stroke-opacity:1"
               id="path73723-2-9-9-7" />
          </g>
          <g
             id="g73729-1-0-5-3"
             transform="matrix(0.05579662,0,0,0.04572823,150.36751,138.45411)"
             style="display:inline;fill:none;fill-opacity:1;stroke:#ffffff;stroke-width:3.58327;stroke-miterlimit:4;stroke-dasharray:none;stroke-opacity:1">
            <path
               d="m 543.598,114.792 v 48.56 c 0,20.094 11.64,31.953 31.734,31.953 16.828,0 30.828,-13.212 30.828,-30.39 0,-16.701 -12.312,-31.496 -29.578,-31.496 -5.766,0 -11.859,1.697 -15.141,5.872 h -0.218 v -26.31 z m 15.25,49.57 c 0,-7.798 6.328,-14.566 14.906,-14.566 8.469,0 14.797,6.768 14.797,14.566 0,7.798 -6.328,14.566 -14.797,14.566 -8.578,0 -14.906,-6.768 -14.906,-14.566 z"
               style="fill:none;fill-opacity:1;stroke:#ffffff;stroke-width:3.58327;stroke-linecap:butt;stroke-linejoin:miter;stroke-miterlimit:4;stroke-dasharray:none;stroke-opacity:1"
               id="path73731-8-1-1-5" />
          </g>
        </g>
      </g>
    </a>
  </g>
</svg>
